<svg width="135" height="96" viewBox="0 0 135 96" fill="none" xmlns="http://www.w3.org/2000/svg">
<g id="Frame 8">
<circle id="Oval" cx="48" cy="48" r="48" fill="#FCB72B"/>
<path id="Combined Shape" fill-rule="evenodd" clip-rule="evenodd" d="M120.787 24.0127H99.9979C97.791 24.0155 96.0028 25.8037 96 28.0106V67.9892C96.0028 70.1961 97.791 71.9843 99.9979 71.9871H119.987V70.5567C119.983 66.9548 121.05 63.4321 123.051 60.4373C123.263 60.1198 123.22 59.6975 122.951 59.4282L117.354 53.8312C116.837 53.3133 116.563 52.601 116.599 51.87C116.635 51.1386 116.979 50.4574 117.545 49.9932C118.634 49.1603 120.175 49.2792 121.124 50.2689L129.017 58.1617L130.147 57.0311L124.785 51.6667V28.0106C124.782 25.8037 122.994 24.0155 120.787 24.0127ZM123.186 50.0676L122.255 49.1369C120.721 47.5697 118.254 47.4064 116.527 48.7583C115.613 49.5091 115.059 50.6113 115.001 51.7929C114.943 52.9742 115.387 54.125 116.224 54.9618L121.365 60.1032C119.447 63.193 118.419 66.7519 118.394 70.388H99.9979C98.6734 70.388 97.5991 69.3137 97.5991 67.9892V65.5905H117.588V63.9914H97.5991V30.4093H123.186V50.0676ZM97.5991 28.8101H123.186V28.0106C123.186 26.6861 122.111 25.6118 120.787 25.6118H99.9979C98.6734 25.6118 97.5991 26.6861 97.5991 28.0106V28.8101ZM127.142 42.6132L126.064 43.7917L130.968 48.2869C132.122 49.349 132.78 50.8454 132.78 52.4135V71.9871H134.38V52.4135C134.378 50.3966 133.532 48.4732 132.046 47.1082L127.142 42.6132ZM100.797 38.405H103.996C104.879 38.405 105.595 37.6892 105.595 36.8059V33.6076C105.595 32.7242 104.879 32.0084 103.996 32.0084H100.797C99.9141 32.0084 99.1983 32.7242 99.1983 33.6076V36.8059C99.1983 37.6892 99.9141 38.405 100.797 38.405ZM100.797 33.6076H103.996V36.8059H100.797V33.6076ZM111.991 38.405H108.793C107.91 38.405 107.194 37.6892 107.194 36.8059V33.6076C107.194 32.7242 107.91 32.0084 108.793 32.0084H111.991C112.875 32.0084 113.591 32.7242 113.591 33.6076V36.8059C113.591 37.6892 112.875 38.405 111.991 38.405ZM111.991 33.6076H108.793V36.8059H111.991V33.6076ZM116.789 38.405H119.987C120.871 38.405 121.586 37.6892 121.586 36.8059V33.6076C121.586 32.7242 120.871 32.0084 119.987 32.0084H116.789C115.906 32.0084 115.19 32.7242 115.19 33.6076V36.8059C115.19 37.6892 115.906 38.405 116.789 38.405ZM116.789 33.6076H119.987V36.8059H116.789V33.6076ZM103.996 46.4008H100.797C99.9141 46.4008 99.1983 45.6849 99.1983 44.8016V41.6033C99.1983 40.72 99.9141 40.0042 100.797 40.0042H103.996C104.879 40.0042 105.595 40.72 105.595 41.6033V44.8016C105.595 45.6849 104.879 46.4008 103.996 46.4008ZM103.996 41.6033H100.797V44.8016H103.996V41.6033ZM100.797 54.3965H103.996C104.879 54.3965 105.595 53.6807 105.595 52.7973V49.5991C105.595 48.7157 104.879 47.9999 103.996 47.9999H100.797C99.9141 47.9999 99.1983 48.7157 99.1983 49.5991V52.7973C99.1983 53.6807 99.9141 54.3965 100.797 54.3965ZM100.797 49.5991H103.996V52.7973H100.797V49.5991ZM111.991 46.4008H108.793C107.91 46.4008 107.194 45.6849 107.194 44.8016V41.6033C107.194 40.72 107.91 40.0042 108.793 40.0042H111.991C112.875 40.0042 113.591 40.72 113.591 41.6033V44.8016C113.591 45.6849 112.875 46.4008 111.991 46.4008ZM111.991 41.6033H108.793V44.8016H111.991V41.6033ZM116.789 46.4008H119.987C120.871 46.4008 121.586 45.6849 121.586 44.8016V41.6033C121.586 40.72 120.871 40.0042 119.987 40.0042H116.789C115.906 40.0042 115.19 40.72 115.19 41.6033V44.8016C115.19 45.6849 115.906 46.4008 116.789 46.4008ZM116.789 41.6033H119.987V44.8016H116.789V41.6033ZM111.991 54.3965H108.793C107.91 54.3965 107.194 53.6807 107.194 52.7973V49.5991C107.194 48.7157 107.91 47.9999 108.793 47.9999H111.991C112.875 47.9999 113.591 48.7157 113.591 49.5991V52.7973C113.591 53.6807 112.875 54.3965 111.991 54.3965ZM111.991 49.5991H108.793V52.7973H111.991V49.5991ZM100.797 62.3922H103.996C104.879 62.3922 105.595 61.6764 105.595 60.7931V57.5948C105.595 56.7115 104.879 55.9956 103.996 55.9956H100.797C99.9141 55.9956 99.1983 56.7115 99.1983 57.5948V60.7931C99.1983 61.6764 99.9141 62.3922 100.797 62.3922ZM100.797 57.5948H103.996V60.7931H100.797V57.5948ZM111.991 62.3922H108.793C107.91 62.3922 107.194 61.6764 107.194 60.7931V57.5948C107.194 56.7115 107.91 55.9956 108.793 55.9956H111.991C112.875 55.9956 113.591 56.7115 113.591 57.5948V60.7931C113.591 61.6764 112.875 62.3922 111.991 62.3922ZM111.991 57.5948H108.793V60.7931H111.991V57.5948ZM111.192 67.1897H109.593V68.7888H111.192V67.1897Z" fill="#495567"/>
</g>
</svg>
